<?xml version="1.0" encoding="UTF-8" standalone="no"?>
<svg width="63px" height="70px" viewBox="0 0 63 70" version="1.1" xmlns="http://www.w3.org/2000/svg" xmlns:xlink="http://www.w3.org/1999/xlink">
    <!-- Generator: Sketch 3.8.3 (29802) - http://www.bohemiancoding.com/sketch -->
    <title>airship-logo</title>
    <desc>Created with Sketch.</desc>
    <defs>
        <polygon id="path-1" points="0.000215751453 69.3964035 62.8031559 69.3964035 62.8031559 0.000122807018 0.000215751453 0.000122807018 0.000215751453 69.3964035"></polygon>
    </defs>
    <g id="About-Us" stroke="none" stroke-width="1" fill="none" fill-rule="evenodd">
        <g id="About" transform="translate(-37.000000, -30.000000)">
            <g id="airship-logo" transform="translate(37.000000, 30.000000)">
                <mask id="mask-2" fill="white">
                    <use xlink:href="#path-1"></use>
                </mask>
                <g id="Clip-2"></g>
                <path d="M44.1038912,52.7610877 C44.1038912,52.6990702 44.1563912,52.6462632 44.2193912,52.6462632 C44.2811559,52.6462632 44.3348912,52.6990702 44.3348912,52.7610877 C44.3348912,52.8231053 44.2811559,52.8752982 44.2193912,52.8752982 C44.1563912,52.8752982 44.1038912,52.8231053 44.1038912,52.7610877 L44.1038912,52.7610877 Z M43.2960088,52.7610877 C43.2960088,53.2670526 43.7098324,53.6784561 44.2193912,53.6784561 C44.7277147,53.6784561 45.1421559,53.2670526 45.1421559,52.7610877 C45.1421559,52.2551228 44.7277147,51.8437193 44.2193912,51.8437193 C43.7098324,51.8437193 43.2960088,52.2551228 43.2960088,52.7610877 L43.2960088,52.7610877 Z M41.6882735,14.3280175 C41.6085971,13.9700351 41.2522147,13.7440702 40.8921265,13.8226667 C40.5320382,13.9018772 40.3041265,14.2561754 40.3838029,14.6141579 C40.4628618,14.9727544 40.8204794,15.1993333 41.1805676,15.1201228 C41.5406559,15.0402982 41.76795,14.686614 41.6882735,14.3280175 L41.6882735,14.3280175 Z M46.33545,52.7610877 C46.33545,52.6990702 46.3891853,52.6462632 46.4515676,52.6462632 C46.51395,52.6462632 46.5670676,52.6990702 46.5670676,52.7610877 C46.5670676,52.8231053 46.51395,52.8752982 46.4515676,52.8752982 C46.3891853,52.8752982 46.33545,52.8231053 46.33545,52.7610877 L46.33545,52.7610877 Z M45.5281853,52.7610877 C45.5281853,53.2670526 45.9426265,53.6784561 46.4515676,53.6784561 C46.9605088,53.6784561 47.37495,53.2670526 47.37495,52.7610877 C47.37495,52.2551228 46.9605088,51.8437193 46.4515676,51.8437193 C45.9426265,51.8437193 45.5281853,52.2551228 45.5281853,52.7610877 L45.5281853,52.7610877 Z M25.47195,26.9194211 C25.47195,27.286 25.7708912,27.583193 26.1396265,27.583193 C26.5089794,27.583193 26.8079206,27.286 26.8079206,26.9194211 C26.8079206,26.551614 26.5089794,26.2550351 26.1396265,26.2550351 C25.7708912,26.2550351 25.47195,26.551614 25.47195,26.9194211 L25.47195,26.9194211 Z M25.8165971,30.0387193 C25.8165971,30.4052982 26.1161559,30.7024912 26.4848912,30.7024912 C26.8536265,30.7024912 27.1531853,30.4052982 27.1531853,30.0387193 C27.1531853,29.6721404 26.8536265,29.3749474 26.4848912,29.3749474 C26.1161559,29.3749474 25.8165971,29.6721404 25.8165971,30.0387193 L25.8165971,30.0387193 Z M26.1624794,33.1580175 C26.1624794,33.5252105 26.4614206,33.8224035 26.8295382,33.8224035 C27.1988912,33.8224035 27.4978324,33.5252105 27.4978324,33.1580175 C27.4978324,32.7920526 27.1988912,32.4942456 26.8295382,32.4942456 C26.4614206,32.4942456 26.1624794,32.7920526 26.1624794,33.1580175 L26.1624794,33.1580175 Z M42.0279794,17.4485439 C41.9483029,17.0905614 41.5913029,16.8645965 41.2318324,16.943193 C40.8717441,17.0224035 40.6438324,17.3767018 40.7235088,17.7352982 C40.8025676,18.0932807 41.1595676,18.3192456 41.5196559,18.2406491 C41.8797441,18.1614386 42.1076559,17.8065263 42.0279794,17.4485439 L42.0279794,17.4485439 Z M42.3670676,20.5696842 C42.2880088,20.2104737 41.9303912,19.9845088 41.5709206,20.0637193 C41.2108324,20.1435439 40.9829206,20.4972281 41.0625971,20.8552105 C41.1422735,21.213807 41.4986559,21.4397719 41.8587441,21.3605614 C42.21945,21.2819649 42.4467441,20.9270526 42.3670676,20.5696842 L42.3670676,20.5696842 Z M43.3855676,29.9306491 C43.3058912,29.5720526 42.9488912,29.3460877 42.5888029,29.4252982 C42.2287147,29.5038947 42.0014206,29.858807 42.0804794,30.2167895 C42.1595382,30.575386 42.5165382,30.8013509 42.8772441,30.7221404 C43.2373324,30.6435439 43.4640088,30.2886316 43.3855676,29.9306491 L43.3855676,29.9306491 Z M43.7240382,33.0511754 C43.6449794,32.693193 43.2885971,32.466614 42.9278912,32.5464386 C42.5678029,32.6250351 42.3411265,32.9793333 42.4195676,33.3379298 C42.4992441,33.6959123 42.8556265,33.9212632 43.2163324,33.8426667 C43.5764206,33.7640702 43.8037147,33.4097719 43.7240382,33.0511754 L43.7240382,33.0511754 Z M43.0458618,26.8101228 C42.9655676,26.4521404 42.6091853,26.2255614 42.2497147,26.3047719 C41.8890088,26.3839825 41.6610971,26.7382807 41.7413912,27.0968772 C41.8210676,27.4542456 42.1768324,27.6808246 42.5375382,27.6022281 C42.8970088,27.5230175 43.1255382,27.1681053 43.0458618,26.8101228 L43.0458618,26.8101228 Z M42.7061559,23.6895965 C42.6264794,23.331614 42.2700971,23.1056491 41.9100088,23.1848596 C41.5493029,23.2628421 41.3220088,23.6177544 41.4016853,23.9757368 C41.4807441,24.3337193 41.8371265,24.5602982 42.19845,24.4817018 C42.5579206,24.4018772 42.78645,24.048193 42.7061559,23.6895965 L42.7061559,23.6895965 Z M24.0915088,14.4397719 C24.0915088,14.8063509 24.39045,15.1035439 24.7591853,15.1035439 C25.1279206,15.1035439 25.4268618,14.8063509 25.4268618,14.4397719 C25.4268618,14.0725789 25.1279206,13.7747719 24.7591853,13.7747719 C24.39045,13.7747719 24.0915088,14.0725789 24.0915088,14.4397719 L24.0915088,14.4397719 Z M2.53130294,14.0535439 C2.54797941,14.020386 2.56342059,13.985386 2.57886176,13.9522281 C3.32127353,12.8567895 4.84439118,11.8141579 6.62136176,11.2338947 C8.41192059,10.6487193 10.1333029,10.6174035 11.4958324,11.1258246 C10.5928324,11.4893333 9.71762647,12.0837193 9.03512647,12.8224035 C7.96350882,13.9810877 7.44097941,15.3829298 7.56265588,16.7700351 C7.58180294,16.9794211 7.75721471,17.136 7.96474412,17.136 C7.97709706,17.136 7.98821471,17.136 7.99995,17.1347719 C8.22230294,17.1151228 8.38721471,16.9204737 8.36745,16.6994211 C8.15003824,14.2365263 10.4544794,12.0407368 12.6576265,11.6090702 C12.6594794,11.6090702 12.6613324,11.6078421 12.6625676,11.6078421 C12.6773912,11.6041579 12.6909794,11.5992456 12.7045676,11.5949474 C12.7156853,11.5912632 12.7274206,11.588807 12.7391559,11.5832807 C12.7484206,11.5802105 12.7576853,11.5734561 12.7675676,11.5691579 C12.7811559,11.5611754 12.7947441,11.5550351 12.8083324,11.5464386 C12.8151265,11.5421404 12.8200676,11.536 12.8262441,11.5310877 C12.84045,11.5194211 12.8552735,11.5095965 12.8676265,11.4960877 C12.8738029,11.4905614 12.8781265,11.483807 12.8836853,11.4776667 C12.8960382,11.4635439 12.9077735,11.4500351 12.9176559,11.4346842 C12.9182735,11.4334561 12.9195088,11.4322281 12.9201265,11.431 C12.9250676,11.4236316 12.9281559,11.4162632 12.9318618,11.4076667 C12.9398912,11.3935439 12.9479206,11.3794211 12.9540971,11.3646842 C12.9590382,11.3530175 12.9615088,11.3407368 12.9652147,11.3284561 C12.9695382,11.3161754 12.9738618,11.3032807 12.9763324,11.2897719 C12.9788029,11.2756491 12.9794206,11.2627544 12.9806559,11.2486316 C12.9818912,11.2363509 12.9837441,11.2246842 12.9837441,11.2124035 C12.9831265,11.1952105 12.9806559,11.1792456 12.9788029,11.1626667 C12.9775676,11.1546842 12.9775676,11.1460877 12.9763324,11.1368772 C12.9757147,11.1356491 12.9750971,11.1350351 12.9750971,11.133807 C12.9707735,11.1147719 12.9639794,11.0963509 12.9578029,11.0779298 C12.9553324,11.0717895 12.9540971,11.0644211 12.9516265,11.0582807 C12.9232147,10.9901228 12.8738029,10.9299474 12.8095676,10.8857368 C12.8064794,10.8845088 12.8052441,10.8826667 12.8040088,10.8814386 C12.8015382,10.8802105 12.7996853,10.8783684 12.7972147,10.8765263 C11.13945,9.82468421 8.79671471,9.67608772 6.36936176,10.4706491 C5.23968529,10.8402982 4.21624412,11.3751228 3.38674412,12.0002105 C4.10506765,9.91924561 4.45403824,7.65959649 4.10445,5.81933333 C8.11050882,5.98389474 11.7558618,8.76363158 13.80645,11.6244211 C12.7928912,12.1973158 11.54895,13.1472281 10.45695,14.6737193 C9.57742059,15.7992456 8.88565588,17.0752105 8.42921471,18.4574035 C7.14389118,16.4046842 5.06859706,14.8100351 2.53130294,14.0535439 L2.53130294,14.0535439 Z M9.00362647,30.4286316 C9.70218529,31.8992456 10.6799206,33.2151228 11.8688912,34.3081053 C11.8824794,34.320386 11.8960676,34.3332807 11.9084206,34.3455614 C11.9257147,34.3615263 11.9423912,34.3774912 11.9596853,34.3928421 C12.4445382,34.8490702 12.9473029,35.2524912 13.4537735,35.5889825 C11.7984794,36.8839825 9.58050882,37.6865263 7.22295,37.8289825 C7.49595,36.6825789 7.55647941,35.3986316 7.28162647,34.1846842 C8.24453824,35.2009123 9.67686176,35.9985439 11.3216559,35.9985439 C11.6131853,35.9985439 11.9115088,35.9733684 12.2153912,35.9205614 C12.4352735,35.8812632 12.5816559,35.6731053 12.5427441,35.4551228 C12.5038324,35.2365263 12.2950676,35.091614 12.0745676,35.1302982 C9.90168529,35.5122281 8.03392059,34.1754737 7.21492059,32.7687193 C7.97153824,32.186 8.56942059,31.4018772 9.00362647,30.4286316 L9.00362647,30.4286316 Z M13.1511265,32.7515263 C12.3593029,31.9778421 11.6070088,31.0168772 11.0196265,29.9496842 C10.42545,28.8180175 10.0301559,27.5678421 9.88439118,26.2433684 C10.6755971,28.7228421 13.3005971,30.5495965 16.4110676,30.5495965 L22.5510971,30.5495965 L23.1032735,35.6424035 L20.4430676,35.6424035 C18.6858618,35.6424035 17.0280971,35.213807 15.5673618,34.4597719 C15.5655088,34.4585439 15.5636559,34.4573158 15.5611853,34.4567018 C15.55995,34.4554737 15.5574794,34.4548596 15.5556265,34.4542456 C14.6754794,33.9980175 13.8663618,33.4238947 13.1511265,32.7515263 L13.1511265,32.7515263 Z M22.5504794,11.8092456 L26.2378324,11.8092456 L28.8745676,35.6424035 L25.1347147,35.6424035 L22.5504794,11.8092456 Z M23.9902147,48.9669649 L24.6486265,48.9669649 L24.6486265,48.3130175 L23.9902147,48.3130175 L23.9902147,48.9669649 Z M23.9883618,49.9506491 L30.3322147,49.9506491 L30.3322147,49.5398596 L23.9883618,49.5398596 L23.9883618,49.9506491 Z M23.9963912,50.7673158 L30.3315971,50.7673158 L30.3315971,50.8250351 L30.3995382,50.9994211 C31.3692441,53.5040702 33.9337147,55.0176667 37.0868029,54.9495088 C40.1021559,54.8856491 42.6363618,53.413807 43.4578324,51.2683684 L48.7757735,51.2683684 L48.6590382,51.4808246 L47.6306559,53.3481053 L47.6312735,53.3481053 L46.7474206,54.953193 C45.4256559,57.1342456 35.2808029,58.9481053 29.0641853,58.1357368 C28.99995,57.315386 28.9462147,56.5269649 28.9449794,55.7434561 L28.9455971,55.7434561 L28.9455971,52.206 L28.7386853,52.0911754 C27.7455088,51.5397719 26.7992735,51.5483684 25.9537147,52.1077544 L25.7727441,52.2268772 L25.7727441,55.3283684 C25.7523618,55.845386 25.7523618,56.3998596 25.7603912,56.9813509 L25.7603912,57.0052982 C25.7603912,57.0390702 25.7622441,57.0746842 25.7622441,57.1084561 C25.6393324,57.0071404 25.5683029,56.9205614 25.5318618,56.861 L25.51395,56.8327544 C24.6029206,55.4511754 24.0945971,53.4082807 23.9963912,50.7673158 L23.9963912,50.7673158 Z M25.9808912,64.841614 C26.5238029,65.1541579 27.2612735,65.3426667 27.9332735,65.2217018 C27.8437147,65.5557368 27.7380971,65.8965263 27.6164206,66.2428421 C27.2513912,66.3877544 26.7615971,66.3760877 26.3008324,66.205386 C25.9697735,66.083193 25.7430971,65.9118772 25.6288324,65.7632807 C25.7634794,65.4667018 25.8795971,65.1578421 25.9808912,64.841614 L25.9808912,64.841614 Z M28.1482147,64.3067895 C27.5725676,64.6267018 26.6775971,64.3896842 26.2032441,64.0286316 C26.2835382,63.6786316 26.3490088,63.3200351 26.4021265,62.9571404 C26.9326853,63.2445088 27.6497735,63.3679298 28.3125088,63.2752105 C28.2717441,63.6141579 28.2173912,63.9574035 28.1482147,64.3067895 L28.1482147,64.3067895 Z M28.3680971,59.6702105 C28.3872441,59.9661754 28.4033029,60.2639825 28.4131853,60.5648596 C27.7461265,60.693807 27.0531265,60.3923158 26.5997735,60.1239825 C26.6040971,59.8501228 26.6047147,59.5787193 26.6034794,59.3085439 C27.0821559,59.4731053 27.6503912,59.6339825 28.3680971,59.6702105 L28.3680971,59.6702105 Z M28.2210971,57.7022281 C28.2377735,57.9331053 28.2563029,58.1664386 28.27545,58.4022281 C28.2871853,58.5557368 28.2995382,58.7086316 28.3118912,58.8621404 C27.6170382,58.8148596 27.0951265,58.6331053 26.5929794,58.4519649 C26.5905088,58.2474912 26.5861853,58.0448596 26.5824794,57.8459123 C26.5800088,57.7445965 26.5781559,57.6451228 26.5775382,57.5468772 C27.0833912,57.6924035 27.63495,57.788193 28.2210971,57.7022281 L28.2210971,57.7022281 Z M27.0321265,54.9335439 L26.5812441,54.9317018 L26.5812441,52.6702105 C27.0691853,52.4141579 27.5651559,52.4215263 28.1377147,52.6867895 L28.1377147,54.9372281 L27.0321265,54.9335439 Z M28.1685971,56.8972281 C27.61395,56.9948596 27.0772147,56.8695965 26.5651853,56.7007368 C26.5620971,56.3673158 26.5620971,56.0443333 26.5688912,55.7348596 L26.7603618,55.7354737 L28.1333912,55.740386 C28.1340088,56.126 28.1469794,56.5097719 28.1685971,56.8972281 L28.1685971,56.8972281 Z M28.39095,62.4450351 C27.6460676,62.6280175 26.8116265,62.3707368 26.5071265,62.0465263 C26.5386265,61.7069649 26.5596265,61.3649474 26.57445,61.0241579 C27.1167441,61.2851228 27.7615676,61.4711754 28.4261559,61.3784561 C28.4249206,61.7290702 28.4138029,62.0839825 28.39095,62.4450351 L28.39095,62.4450351 Z M47.6405382,50.6561754 L48.2983324,50.6561754 L48.2983324,50.001614 L47.6405382,50.001614 L47.6405382,50.6561754 Z M47.4045971,35.6424035 L46.8338912,30.5495965 L53.4692735,30.5495965 C55.74345,30.5495965 57.7260971,29.3325789 58.7655971,27.5383684 C57.6488912,32.1798596 53.4420971,35.6424035 48.43545,35.6424035 L47.4045971,35.6424035 Z M58.7686853,19.9243333 C57.7291853,18.1276667 55.7453029,16.908807 53.4692735,16.908807 L45.3052147,16.908807 L44.7345088,11.8092456 L48.43545,11.8092456 C53.4458029,11.8092456 57.6550676,15.2767018 58.7686853,19.9243333 L58.7686853,19.9243333 Z M42.7018324,11.8092456 L45.3725382,35.6424035 L41.63145,35.6424035 L41.0768029,30.5360877 L40.8655676,28.5957368 L39.0410382,11.8092456 L42.7018324,11.8092456 Z M40.5332735,9.80073684 L36.4209794,9.80073684 L36.4209794,6.49477193 L40.5332735,9.80073684 Z M28.3433912,23.3236316 L27.7164794,17.7187193 L38.86995,17.7187193 L39.4542441,23.085386 L39.4795676,23.3236316 L28.3433912,23.3236316 Z M29.0610971,29.7323158 L28.43295,24.1274035 L39.5672735,24.1274035 L40.1768912,29.7323158 L29.0610971,29.7323158 Z M29.6805971,48.9669649 L30.3396265,48.9669649 L30.3396265,48.3130175 L29.6805971,48.3130175 L29.6805971,48.9669649 Z M29.6867735,35.6424035 L29.1222441,30.5360877 L40.2639794,30.5360877 L40.8192441,35.6424035 L29.6867735,35.6424035 Z M46.0253912,23.3236316 L45.3972441,17.7248596 L53.4692735,17.7248596 C56.3635676,17.7248596 58.7180382,19.9918772 58.7180382,22.7783684 L58.7180382,23.3236316 L46.0253912,23.3236316 Z M58.7180382,24.1274035 L58.7180382,24.6800351 C58.7180382,27.4665263 56.3635676,29.7329298 53.4692735,29.7329298 L46.7424794,29.7329298 L46.1143324,24.1274035 L58.7180382,24.1274035 Z M45.7437441,50.6561754 L46.4009206,50.6561754 L46.4009206,50.001614 L45.7437441,50.001614 L45.7437441,50.6561754 Z M43.8457147,50.6561754 L44.5035088,50.6561754 L44.5035088,50.001614 L43.8457147,50.001614 L43.8457147,50.6561754 Z M43.1125676,49.2604737 L41.8507147,37.6502982 L45.5973618,37.6502982 L46.8987441,49.2604737 L43.1125676,49.2604737 Z M41.5227441,50.6395965 L41.5332441,50.6408246 C40.9674794,51.9597719 39.1596265,52.8974035 37.04295,52.9422281 C35.3061265,52.9698596 33.1875971,52.3367895 32.3513029,50.4406491 L32.3513029,47.5319649 L31.0029794,47.5319649 L29.9091265,37.6502982 L41.0372735,37.6502982 L42.2997441,49.2604737 L41.5653618,49.2604737 L41.5493029,50.6058246 C41.5455971,50.6168772 41.5400382,50.6260877 41.5344794,50.6371404 L41.5227441,50.6395965 Z M27.7838029,48.9669649 L28.4422147,48.9669649 L28.4422147,48.3130175 L27.7838029,48.3130175 L27.7838029,48.9669649 Z M25.8870088,48.9669649 L26.5441853,48.9669649 L26.5441853,48.3130175 L25.8870088,48.3130175 L25.8870088,48.9669649 Z M25.3515088,37.6502982 L29.0950676,37.6502982 L30.1895382,47.5319649 L26.4237441,47.5319649 L25.3515088,37.6502982 Z M38.2282147,11.8092456 L38.7834794,16.9155614 L27.6151853,16.9155614 L27.0512735,11.8092456 L35.7922147,11.8092456 C35.8570676,11.851 35.9342735,11.8767895 36.0164206,11.8767895 C36.0998029,11.8767895 36.1770088,11.851 36.2412441,11.8092456 L38.2282147,11.8092456 Z M35.6124794,9.80073684 L35.0763618,9.80073684 L32.2475382,8.176 L35.6124794,6.3332807 L35.6124794,9.80073684 Z M34.4457441,6.05512281 L31.4303912,7.70687719 L28.5546265,6.05512281 L34.4457441,6.05512281 Z M31.4211265,8.62915789 L33.4612147,9.80073684 L29.2815971,9.80073684 L31.4211265,8.62915789 Z M28.19145,9.48082456 L28.19145,6.77415789 L30.6039794,8.15942105 L28.19145,9.48082456 Z M27.3835676,9.47898246 L25.0340382,8.18398246 L27.3835676,6.7864386 L27.3835676,9.47898246 Z M27.0395382,6.05512281 L24.2175088,7.73450877 L21.1712735,6.05512281 L27.0395382,6.05512281 Z M20.7358324,6.73363158 L23.4158029,8.211 L20.7450971,9.80073684 L20.7358324,9.80073684 L20.7358324,6.73363158 Z M10.4588029,23.3236316 L10.4588029,22.7783684 C10.4588029,19.9918772 13.1282735,17.7248596 16.4110676,17.7248596 L21.1607735,17.7248596 L21.7679206,23.3236316 L10.4588029,23.3236316 Z M22.3176265,9.80073684 L24.23295,8.66108772 L26.30145,9.80073684 L22.3176265,9.80073684 Z M22.4621559,29.7329298 L16.4110676,29.7329298 C13.1282735,29.7329298 10.4588029,27.4665263 10.4588029,24.6800351 L10.4588029,24.1274035 L21.8550088,24.1274035 L22.4621559,29.7329298 Z M20.5190382,11.8092456 L21.07245,16.908807 L16.4110676,16.908807 C13.6532735,16.908807 11.2765676,18.3456491 10.2210088,20.4002105 C10.59345,18.6152105 11.2308618,17.0764386 12.1048324,15.8367018 C13.0065971,14.7013509 14.1356559,13.7538947 15.4259206,13.0637193 C15.5031265,13.0287193 15.5766265,12.9906491 15.6538324,12.9587193 C15.7304206,12.9286316 15.8002147,12.8868772 15.8663029,12.8402105 L20.5190382,11.8092456 Z M19.92795,9.76942105 L17.9903912,8.946 L19.92795,7.021 L19.92795,9.76942105 Z M19.63395,6.17731579 L17.1899206,8.60521053 L13.4778618,7.02775439 L19.63395,6.17731579 Z M17.3745971,9.55757895 L18.3560382,9.97512281 C17.7180088,10.0807368 17.0972735,10.2342456 16.4950676,10.4307368 L17.3745971,9.55757895 Z M15.3962735,10.3871404 C14.70945,9.44521053 13.8682147,8.51249123 12.9065382,7.65836842 L16.5741265,9.21678947 L15.3962735,10.3871404 Z M22.5893912,55.1195965 L20.1929206,54.1758246 L22.0427735,51.943807 C22.1403618,53.1098596 22.3238029,54.1696842 22.5893912,55.1195965 L22.5893912,55.1195965 Z M21.9587735,50.7820526 L19.5882441,53.641614 L18.0935382,50.7820526 L21.9587735,50.7820526 Z M17.3214794,51.0473158 L18.6370676,53.5624035 L15.86445,52.4712632 L17.3214794,51.0473158 Z M16.4407147,50.7820526 L15.2103618,51.9849474 L14.4586853,50.7820526 L16.4407147,50.7820526 Z M14.1381265,51.7921404 L13.6260971,51.5901228 L13.6260971,50.9717895 L14.1381265,51.7921404 Z M12.4599794,51.4224912 L12.5853618,51.4224912 L12.5853618,50.7802105 L12.4599794,50.7802105 L12.4599794,51.4224912 Z M11.7033618,58.0264386 C11.6792735,58.051 11.6409794,58.0817018 11.5977441,58.0817018 C11.4748324,58.0817018 11.2944794,57.8698596 11.2870676,57.4167018 L11.6273912,54.8874912 C11.7107735,55.6593333 11.7916853,56.4710877 11.8515971,57.4167018 C11.8645676,57.6862632 11.8089794,57.9159123 11.7033618,58.0264386 L11.7033618,58.0264386 Z M11.8503618,44.6785439 C11.7916853,45.6192456 11.7107735,46.430386 11.6273912,47.201614 L11.2870676,44.6730175 C11.2944794,44.2198596 11.4748324,44.0086316 11.5977441,44.0086316 C11.6409794,44.0086316 11.6792735,44.0381053 11.7033618,44.0632807 C11.8089794,44.173807 11.8645676,44.4040702 11.8503618,44.6785439 L11.8503618,44.6785439 Z M61.0786853,22.4676667 C61.6277735,22.7280175 61.9952735,23.1940702 61.9952735,23.7252105 C61.9952735,24.2569649 61.6277735,24.7230175 61.0786853,24.9839825 L61.0786853,22.4676667 Z M35.6124794,2.86950877 L31.3358912,2.86950877 L32.1054794,2.12407018 C32.1845382,2.04792982 32.2277735,1.94477193 32.2277735,1.83608772 C32.2277735,1.72740351 32.1845382,1.62363158 32.1054794,1.54810526 L31.3371265,0.803280702 L35.6124794,0.803280702 L35.6124794,2.86950877 Z M0.0903617647,15.1434561 C0.22995,15.4461754 0.509744118,15.6610877 0.839567647,15.7175789 C4.66095,16.3696842 7.46939118,19.2372281 7.79859706,22.6874912 L7.79859706,25.0797719 C7.79859706,25.3388947 7.80847941,25.5937193 7.82453824,25.8479298 C7.81527353,28.0185439 7.34030294,30.7878421 5.12912647,31.6591579 C4.84068529,31.7727544 4.62018529,32.0128421 4.53247941,32.3094211 C4.44415588,32.6047719 4.49850882,32.9246842 4.67886176,33.1758246 C5.71650882,34.6206491 5.57568529,36.9159123 4.89997941,38.4362632 C4.76595,38.7395965 4.79065588,39.0883684 4.96545,39.3702105 C5.14086176,39.6520526 5.44474412,39.8288947 5.77765588,39.8442456 C6.00803824,39.8552982 6.23656765,39.8602105 6.46386176,39.8602105 C9.87574412,39.8602105 13.1443324,38.6481053 15.3728029,36.5917018 C16.9255676,37.2702105 18.6401559,37.6502982 20.4430676,37.6502982 L23.3213029,37.6502982 L24.3916853,47.5319649 L21.9686559,47.5319649 L21.9686559,49.9795088 L13.3926265,49.9795088 L13.3926265,49.9776667 L12.1604206,49.9776667 C12.2252735,49.1763509 12.3024794,48.4640702 12.37845,47.7695965 C12.4791265,46.8436316 12.5841265,45.8857368 12.6570088,44.7233684 C12.6891265,44.0700351 12.4741853,43.7028421 12.2876559,43.5094211 C12.0998912,43.3129298 11.8540676,43.2054737 11.5977441,43.2054737 C11.0430971,43.2054737 10.4804206,43.718193 10.4791853,44.6969649 L10.4791853,44.7239825 L10.4822735,44.751614 L11.1684794,49.8444211 L10.40445,51.1013509 L11.1561265,52.3374035 L10.4791853,57.3663509 L10.4791853,57.3927544 C10.4804206,58.3715263 11.0430971,58.8842456 11.5977441,58.8842456 C11.8553029,58.8842456 12.0998912,58.7761754 12.2876559,58.5802982 C12.4741853,58.3862632 12.6891265,58.0190702 12.6582441,57.3724912 C12.5841265,56.2039825 12.4791265,55.2454737 12.37845,54.3195088 C12.3068029,53.658193 12.2326853,52.9809123 12.1696853,52.2256491 L13.0461265,52.2256491 L14.9157441,52.9618772 C14.9552735,52.9864386 15.0003618,53.0024035 15.0466853,53.0128421 L19.2497735,54.6676667 C19.3115382,54.7204737 19.3856559,54.7567018 19.4690382,54.7659123 C19.4801559,54.7671404 19.4906559,54.7671404 19.5011559,54.7671404 L22.9105676,56.1094211 C23.1631853,56.7805614 23.4652147,57.3847719 23.8160382,57.9202105 C24.1965088,58.5324035 24.86295,59.0334561 25.7955971,59.4098596 C25.7962147,59.7088947 25.7962147,60.0085439 25.7912735,60.308193 C25.7894206,60.326614 25.7894206,60.3468772 25.7900382,60.3665263 C25.7783029,60.9412632 25.7523618,61.5147719 25.6998618,62.075386 C25.6918324,62.110386 25.6887441,62.146 25.6899794,62.1822281 C25.6269794,62.8122281 25.5318618,63.4256491 25.3873324,64.0089825 C25.3694206,64.0501228 25.3583029,64.0931053 25.3552147,64.1373158 C25.2248912,64.6365263 25.0568912,65.1136316 24.8413324,65.5575789 C24.8221853,65.5864386 24.8067441,65.6183684 24.7956265,65.6515263 C24.4812441,66.276 24.0711265,66.8341579 23.5374794,67.2983684 C23.3707147,67.4451228 23.3534206,67.6993333 23.5010382,67.8651228 C23.6468029,68.0327544 23.9025088,68.0487193 24.0705088,67.903193 C24.5380676,67.4948596 24.9210088,67.0263509 25.2335382,66.5111754 C25.4423029,66.6910877 25.7091265,66.8445965 26.0191853,66.958193 C26.4348618,67.1123158 26.8659794,67.1706491 27.26745,67.1374912 C27.0383029,67.6741579 26.7683912,68.2280175 26.4496853,68.7996842 C26.3409794,68.9943333 26.4107735,69.2387193 26.6065676,69.3461754 C26.66895,69.3799474 26.7356559,69.3965263 26.8023618,69.3965263 C26.9444206,69.3965263 27.0821559,69.321614 27.1562735,69.1895965 C29.11545,65.6754737 29.3223618,62.7618772 29.2037735,60.1755614 C30.1469206,60.2781053 31.2030971,60.3290702 32.3228912,60.3290702 C38.5821265,60.3290702 46.8375971,58.7608246 48.4947441,55.9602105 L48.5108029,55.933193 L50.4434206,52.4221404 L62.4615971,48.4646842 L62.4653029,46.3272281 L48.9153618,49.1174035 L47.6294206,37.6502982 L48.43545,37.6502982 C55.1455676,37.6502982 60.6494206,32.4248596 61.0527441,25.8528421 C62.07495,25.5224912 62.8031559,24.6947719 62.8031559,23.7252105 C62.8031559,22.7568772 62.07495,21.9291579 61.0527441,21.5975789 C60.6494206,15.0255614 55.1455676,9.80073684 48.43545,9.80073684 L41.8179794,9.80073684 L36.4209794,5.46196491 L36.4209794,0.401701754 C36.4209794,0.180035088 36.2406265,0.000122807018 36.0164206,0.000122807018 L30.3420971,0.000122807018 C30.1784206,0.000122807018 30.0301853,0.0989824561 29.9684206,0.250035088 C29.9060382,0.401701754 29.9424794,0.575473684 30.0610676,0.689070175 L31.2457147,1.83608772 L30.0610676,2.98310526 C29.9424794,3.09670175 29.9060382,3.27047368 29.9684206,3.42152632 C30.0301853,3.57319298 30.1784206,3.67205263 30.3420971,3.67205263 L35.6124794,3.67205263 L35.6124794,5.25196491 L20.4375088,5.25564912 L11.4519794,6.49661404 C9.22968529,4.90933333 6.55712647,3.80407018 3.73386176,3.80407018 C3.37315588,3.80407018 3.00750882,3.82187719 2.64927353,3.85687719 C2.32130294,3.88819298 2.02853824,4.07792982 1.86733235,4.36222807 C1.70550882,4.64775439 1.69315588,4.99345614 1.83521471,5.28880702 C2.73450882,7.15915789 1.96245,11.2431053 0.147185294,14.2058246 C-0.0263735294,14.4901228 -0.0473735294,14.8413509 0.0903617647,15.1434561 L0.0903617647,15.1434561 Z M25.1260676,23.7988947 C25.1260676,24.1654737 25.4256265,24.4632807 25.7943618,24.4632807 C26.1630971,24.4632807 26.4626559,24.1654737 26.4626559,23.7988947 C26.4626559,23.4323158 26.1630971,23.1345088 25.7943618,23.1345088 C25.4256265,23.1345088 25.1260676,23.4323158 25.1260676,23.7988947 L25.1260676,23.7988947 Z M57.6723618,45.0125789 C56.6130971,45.0451228 55.7335676,45.5952982 55.1850971,46.5525789 C54.7082735,46.186 54.1245971,45.9901228 53.4939794,45.9901228 C52.6008618,45.9901228 51.7522147,46.3689825 51.1506265,46.9922281 L50.0228029,39.1209123 L57.6723618,45.0125789 Z M60.3208324,46.5458246 C60.4616559,46.3726667 60.4363324,46.1196842 60.2640088,45.9772281 C60.1793912,45.9072281 60.0929206,45.8402982 60.0052147,45.7770526 L49.7257147,37.8590702 C49.5941559,37.7577544 49.41195,37.7460877 49.2680382,37.8289825 C49.1235088,37.9131053 49.04445,38.0752105 49.0679206,38.2397719 L50.4897441,48.163807 C50.5150676,48.3461754 50.6602147,48.4880175 50.8436559,48.5113509 C50.86095,48.513807 50.8788618,48.5144211 50.8961559,48.5144211 C51.0592147,48.5144211 51.2099206,48.4174035 51.2747735,48.2645088 C51.6360971,47.4054737 52.5489794,46.8061754 53.4939794,46.8061754 C53.9145971,46.8061754 54.5174206,46.9265263 54.9967147,47.4994211 C55.0899794,47.6105614 55.2351265,47.6652105 55.3790382,47.6406491 C55.5223324,47.6179298 55.6427735,47.5209123 55.6946559,47.3858246 C56.0868618,46.3800351 56.8243324,45.8274035 57.7711853,45.8274035 C58.3480676,45.8274035 58.9663324,46.0417018 59.5148029,46.431 L59.7501265,46.6127544 C59.9267735,46.7490702 60.1818618,46.7195965 60.3208324,46.5458246 L60.3208324,46.5458246 Z M24.4361559,17.5596842 C24.4361559,17.9262632 24.7350971,18.2228421 25.1038324,18.2228421 C25.4725676,18.2228421 25.7721265,17.9262632 25.7721265,17.5596842 C25.7721265,17.1924912 25.4725676,16.8952982 25.1038324,16.8952982 C24.7350971,16.8952982 24.4361559,17.1924912 24.4361559,17.5596842 L24.4361559,17.5596842 Z M24.7814206,20.6789825 C24.7814206,21.0461754 25.0803618,21.3427544 25.4497147,21.3427544 C25.81845,21.3427544 26.1180088,21.0461754 26.1180088,20.6789825 C26.1180088,20.3117895 25.81845,20.0152105 25.4497147,20.0152105 C25.0803618,20.0152105 24.7814206,20.3117895 24.7814206,20.6789825 L24.7814206,20.6789825 Z" id="Fill-1" fill="#FF4200" mask="url(#mask-2)"></path>
            </g>
        </g>
    </g>
</svg>